<svg width="59" height="23" viewBox="0 0 59 23" fill="none" xmlns="http://www.w3.org/2000/svg">
<rect width="59" height="23" rx="11.5" fill="#89E589"/>
<path d="M17.768 16.126C16.6947 16.126 15.7893 15.9253 15.052 15.524C14.3147 15.1133 13.7547 14.53 13.372 13.774C12.9987 13.018 12.812 12.1173 12.812 11.072C12.812 10.036 13.0033 9.14 13.386 8.384C13.7687 7.61867 14.324 7.03067 15.052 6.62C15.78 6.20933 16.6527 6.004 17.67 6.004C18.37 6.004 19.0187 6.10667 19.616 6.312C20.2133 6.51733 20.7127 6.81133 21.114 7.194L20.596 8.328C20.148 7.95467 19.6907 7.68867 19.224 7.53C18.7573 7.362 18.2393 7.278 17.67 7.278C16.578 7.278 15.7473 7.60933 15.178 8.272C14.6087 8.92533 14.324 9.85867 14.324 11.072C14.324 12.3133 14.6133 13.256 15.192 13.9C15.78 14.544 16.6573 14.866 17.824 14.866C18.5333 14.866 19.238 14.7493 19.938 14.516V11.87H17.53V10.778H21.156V15.426C20.736 15.6313 20.2133 15.7993 19.588 15.93C18.972 16.0607 18.3653 16.126 17.768 16.126ZM26.2022 16.126C25.5116 16.126 24.9142 15.9813 24.4102 15.692C23.9062 15.4027 23.5142 14.9967 23.2342 14.474C22.9636 13.942 22.8282 13.312 22.8282 12.584C22.8282 11.856 22.9636 11.2307 23.2342 10.708C23.5142 10.176 23.9062 9.76533 24.4102 9.476C24.9142 9.18667 25.5116 9.042 26.2022 9.042C26.8742 9.042 27.4622 9.18667 27.9662 9.476C28.4702 9.76533 28.8622 10.176 29.1422 10.708C29.4222 11.2307 29.5622 11.856 29.5622 12.584C29.5622 13.312 29.4222 13.942 29.1422 14.474C28.8622 14.9967 28.4702 15.4027 27.9662 15.692C27.4622 15.9813 26.8742 16.126 26.2022 16.126ZM26.2022 15.034C26.7809 15.034 27.2476 14.824 27.6022 14.404C27.9569 13.984 28.1342 13.3773 28.1342 12.584C28.1342 11.7907 27.9569 11.1887 27.6022 10.778C27.2476 10.358 26.7809 10.148 26.2022 10.148C25.6142 10.148 25.1429 10.358 24.7882 10.778C24.4336 11.1887 24.2562 11.7907 24.2562 12.584C24.2562 13.3773 24.4336 13.984 24.7882 14.404C25.1429 14.824 25.6142 15.034 26.2022 15.034ZM34.1183 16.126C33.4276 16.126 32.8303 15.9813 32.3263 15.692C31.8223 15.4027 31.4303 14.9967 31.1503 14.474C30.8796 13.942 30.7443 13.312 30.7443 12.584C30.7443 11.856 30.8796 11.2307 31.1503 10.708C31.4303 10.176 31.8223 9.76533 32.3263 9.476C32.8303 9.18667 33.4276 9.042 34.1183 9.042C34.7903 9.042 35.3783 9.18667 35.8823 9.476C36.3863 9.76533 36.7783 10.176 37.0583 10.708C37.3383 11.2307 37.4783 11.856 37.4783 12.584C37.4783 13.312 37.3383 13.942 37.0583 14.474C36.7783 14.9967 36.3863 15.4027 35.8823 15.692C35.3783 15.9813 34.7903 16.126 34.1183 16.126ZM34.1183 15.034C34.6969 15.034 35.1636 14.824 35.5183 14.404C35.8729 13.984 36.0503 13.3773 36.0503 12.584C36.0503 11.7907 35.8729 11.1887 35.5183 10.778C35.1636 10.358 34.6969 10.148 34.1183 10.148C33.5303 10.148 33.0589 10.358 32.7043 10.778C32.3496 11.1887 32.1723 11.7907 32.1723 12.584C32.1723 13.3773 32.3496 13.984 32.7043 14.404C33.0589 14.824 33.5303 15.034 34.1183 15.034ZM41.6703 16.126C41.0729 16.126 40.5456 15.986 40.0883 15.706C39.6403 15.4167 39.2903 15.006 39.0383 14.474C38.7863 13.942 38.6603 13.312 38.6603 12.584C38.6603 11.856 38.7863 11.2307 39.0383 10.708C39.2903 10.176 39.6403 9.76533 40.0883 9.476C40.5363 9.18667 41.0636 9.042 41.6703 9.042C42.1836 9.042 42.6409 9.154 43.0423 9.378C43.4436 9.602 43.7423 9.90533 43.9383 10.288V6.13H45.3523V16H43.9663V14.81C43.7703 15.2207 43.4669 15.5427 43.0563 15.776C42.6549 16.0093 42.1929 16.126 41.6703 16.126ZM42.0343 15.034C42.6129 15.034 43.0796 14.824 43.4343 14.404C43.7889 13.984 43.9663 13.3773 43.9663 12.584C43.9663 11.7907 43.7889 11.1887 43.4343 10.778C43.0796 10.358 42.6129 10.148 42.0343 10.148C41.4463 10.148 40.9749 10.358 40.6203 10.778C40.2656 11.1887 40.0883 11.7907 40.0883 12.584C40.0883 13.3773 40.2656 13.984 40.6203 14.404C40.9749 14.824 41.4463 15.034 42.0343 15.034Z" fill="#1F331F"/>
</svg>
