<svg width="86" height="23" viewBox="0 0 86 23" fill="none" xmlns="http://www.w3.org/2000/svg">
<rect width="86" height="23" rx="11.5" fill="#E5C089"/>
<path d="M13.176 16V6.13H14.394L18.048 12.948L21.688 6.13H22.878V16H21.576V8.762L18.482 14.488H17.6L14.492 8.79V16H13.176ZM28.0206 16.126C27.3299 16.126 26.7326 15.9813 26.2286 15.692C25.7246 15.4027 25.3326 14.9967 25.0526 14.474C24.7819 13.942 24.6466 13.312 24.6466 12.584C24.6466 11.856 24.7819 11.2307 25.0526 10.708C25.3326 10.176 25.7246 9.76533 26.2286 9.476C26.7326 9.18667 27.3299 9.042 28.0206 9.042C28.6926 9.042 29.2806 9.18667 29.7846 9.476C30.2886 9.76533 30.6806 10.176 30.9606 10.708C31.2406 11.2307 31.3806 11.856 31.3806 12.584C31.3806 13.312 31.2406 13.942 30.9606 14.474C30.6806 14.9967 30.2886 15.4027 29.7846 15.692C29.2806 15.9813 28.6926 16.126 28.0206 16.126ZM28.0206 15.034C28.5993 15.034 29.0659 14.824 29.4206 14.404C29.7753 13.984 29.9526 13.3773 29.9526 12.584C29.9526 11.7907 29.7753 11.1887 29.4206 10.778C29.0659 10.358 28.5993 10.148 28.0206 10.148C27.4326 10.148 26.9613 10.358 26.6066 10.778C26.2519 11.1887 26.0746 11.7907 26.0746 12.584C26.0746 13.3773 26.2519 13.984 26.6066 14.404C26.9613 14.824 27.4326 15.034 28.0206 15.034ZM35.5726 16.126C34.9753 16.126 34.4479 15.986 33.9906 15.706C33.5426 15.4167 33.1926 15.006 32.9406 14.474C32.6886 13.942 32.5626 13.312 32.5626 12.584C32.5626 11.856 32.6886 11.2307 32.9406 10.708C33.1926 10.176 33.5426 9.76533 33.9906 9.476C34.4386 9.18667 34.9659 9.042 35.5726 9.042C36.0859 9.042 36.5433 9.154 36.9446 9.378C37.3459 9.602 37.6446 9.90533 37.8406 10.288V6.13H39.2546V16H37.8686V14.81C37.6726 15.2207 37.3693 15.5427 36.9586 15.776C36.5573 16.0093 36.0953 16.126 35.5726 16.126ZM35.9366 15.034C36.5153 15.034 36.9819 14.824 37.3366 14.404C37.6913 13.984 37.8686 13.3773 37.8686 12.584C37.8686 11.7907 37.6913 11.1887 37.3366 10.778C36.9819 10.358 36.5153 10.148 35.9366 10.148C35.3486 10.148 34.8773 10.358 34.5226 10.778C34.1679 11.1887 33.9906 11.7907 33.9906 12.584C33.9906 13.3773 34.1679 13.984 34.5226 14.404C34.8773 14.824 35.3486 15.034 35.9366 15.034ZM44.4461 16.126C43.3261 16.126 42.4441 15.8133 41.8001 15.188C41.1561 14.5533 40.8341 13.69 40.8341 12.598C40.8341 11.898 40.9741 11.282 41.2541 10.75C41.5434 10.2087 41.9401 9.78867 42.4441 9.49C42.9481 9.19133 43.5268 9.042 44.1801 9.042C45.1228 9.042 45.8648 9.34533 46.4061 9.952C46.9474 10.5493 47.2181 11.3753 47.2181 12.43V12.906H42.2061C42.3088 14.3247 43.0601 15.034 44.4601 15.034C44.8521 15.034 45.2348 14.9733 45.6081 14.852C45.9908 14.7307 46.3501 14.53 46.6861 14.25L47.1061 15.23C46.7981 15.51 46.4014 15.7293 45.9161 15.888C45.4308 16.0467 44.9408 16.126 44.4461 16.126ZM44.2361 10.036C43.6481 10.036 43.1814 10.218 42.8361 10.582C42.4908 10.946 42.2808 11.4313 42.2061 12.038H46.0281C46.0001 11.4033 45.8321 10.9133 45.5241 10.568C45.2161 10.2133 44.7868 10.036 44.2361 10.036ZM48.7596 16V9.168H50.1316V10.386C50.4863 9.574 51.2236 9.12133 52.3436 9.028L52.8056 9L52.9036 10.204L52.0496 10.288C50.8083 10.4093 50.1876 11.0487 50.1876 12.206V16H48.7596ZM56.0979 16.126C55.6219 16.126 55.1973 16.0327 54.8239 15.846C54.4506 15.6593 54.1519 15.4073 53.9279 15.09C53.7133 14.7727 53.6059 14.4133 53.6059 14.012C53.6059 13.508 53.7319 13.1113 53.9839 12.822C54.2453 12.5327 54.6699 12.3227 55.2579 12.192C55.8553 12.0613 56.6579 11.996 57.6659 11.996H58.1419V11.632C58.1419 11.1 58.0299 10.7173 57.8059 10.484C57.5819 10.2507 57.2133 10.134 56.6999 10.134C56.3079 10.134 55.9159 10.1947 55.5239 10.316C55.1319 10.428 54.7306 10.61 54.3199 10.862L53.8859 9.868C54.2406 9.616 54.6839 9.41533 55.2159 9.266C55.7479 9.11667 56.2566 9.042 56.7419 9.042C57.6753 9.042 58.3659 9.266 58.8139 9.714C59.2619 10.1527 59.4859 10.8433 59.4859 11.786V16H58.1559V14.866C57.9879 15.258 57.7266 15.566 57.3719 15.79C57.0173 16.014 56.5926 16.126 56.0979 16.126ZM56.3779 15.118C56.8819 15.118 57.3019 14.9407 57.6379 14.586C57.9739 14.2313 58.1419 13.7833 58.1419 13.242V12.864H57.6799C56.9986 12.864 56.4619 12.8967 56.0699 12.962C55.6873 13.0273 55.4119 13.1393 55.2439 13.298C55.0853 13.4473 55.0059 13.6573 55.0059 13.928C55.0059 14.2827 55.1273 14.572 55.3699 14.796C55.6126 15.0107 55.9486 15.118 56.3779 15.118ZM64.3455 16.126C63.4868 16.126 62.8475 15.9067 62.4275 15.468C62.0075 15.0293 61.7975 14.3947 61.7975 13.564V10.26H60.4675V9.168H61.7975V7.11H63.2115V9.168H65.3255V10.26H63.2115V13.452C63.2115 13.9467 63.3141 14.32 63.5195 14.572C63.7341 14.824 64.0795 14.95 64.5555 14.95C64.7048 14.95 64.8495 14.936 64.9895 14.908C65.1295 14.8707 65.2695 14.8287 65.4095 14.782L65.6335 15.846C65.4935 15.93 65.2975 15.9953 65.0455 16.042C64.8028 16.098 64.5695 16.126 64.3455 16.126ZM69.6844 16.126C68.5644 16.126 67.6824 15.8133 67.0384 15.188C66.3944 14.5533 66.0724 13.69 66.0724 12.598C66.0724 11.898 66.2124 11.282 66.4924 10.75C66.7817 10.2087 67.1784 9.78867 67.6824 9.49C68.1864 9.19133 68.765 9.042 69.4184 9.042C70.361 9.042 71.103 9.34533 71.6444 9.952C72.1857 10.5493 72.4564 11.3753 72.4564 12.43V12.906H67.4444C67.547 14.3247 68.2984 15.034 69.6984 15.034C70.0904 15.034 70.473 14.9733 70.8464 14.852C71.229 14.7307 71.5884 14.53 71.9244 14.25L72.3444 15.23C72.0364 15.51 71.6397 15.7293 71.1544 15.888C70.669 16.0467 70.179 16.126 69.6844 16.126ZM69.4744 10.036C68.8864 10.036 68.4197 10.218 68.0744 10.582C67.729 10.946 67.519 11.4313 67.4444 12.038H71.2664C71.2384 11.4033 71.0704 10.9133 70.7624 10.568C70.4544 10.2133 70.025 10.036 69.4744 10.036Z" fill="#332B1F"/>
</svg>
