<svg width="48" height="23" viewBox="0 0 48 23" fill="none" xmlns="http://www.w3.org/2000/svg">
<rect width="48" height="23" rx="11.5" fill="#E5DD89"/>
<path d="M13.148 16V6.13H19.42V7.306H14.604V10.456H19.126V11.632H14.604V16H13.148ZM22.6565 16.126C22.1805 16.126 21.7558 16.0327 21.3825 15.846C21.0092 15.6593 20.7105 15.4073 20.4865 15.09C20.2718 14.7727 20.1645 14.4133 20.1645 14.012C20.1645 13.508 20.2905 13.1113 20.5425 12.822C20.8038 12.5327 21.2285 12.3227 21.8165 12.192C22.4138 12.0613 23.2165 11.996 24.2245 11.996H24.7005V11.632C24.7005 11.1 24.5885 10.7173 24.3645 10.484C24.1405 10.2507 23.7718 10.134 23.2585 10.134C22.8665 10.134 22.4745 10.1947 22.0825 10.316C21.6905 10.428 21.2892 10.61 20.8785 10.862L20.4445 9.868C20.7992 9.616 21.2425 9.41533 21.7745 9.266C22.3065 9.11667 22.8152 9.042 23.3005 9.042C24.2338 9.042 24.9245 9.266 25.3725 9.714C25.8205 10.1527 26.0445 10.8433 26.0445 11.786V16H24.7145V14.866C24.5465 15.258 24.2852 15.566 23.9305 15.79C23.5758 16.014 23.1512 16.126 22.6565 16.126ZM22.9365 15.118C23.4405 15.118 23.8605 14.9407 24.1965 14.586C24.5325 14.2313 24.7005 13.7833 24.7005 13.242V12.864H24.2385C23.5572 12.864 23.0205 12.8967 22.6285 12.962C22.2458 13.0273 21.9705 13.1393 21.8025 13.298C21.6438 13.4473 21.5645 13.6573 21.5645 13.928C21.5645 14.2827 21.6858 14.572 21.9285 14.796C22.1712 15.0107 22.5072 15.118 22.9365 15.118ZM27.866 7.586V6.116H29.518V7.586H27.866ZM27.992 16V9.168H29.406V16H27.992ZM31.3963 16V9.168H32.7683V10.386C33.123 9.574 33.8603 9.12133 34.9803 9.028L35.4423 9L35.5403 10.204L34.6863 10.288C33.445 10.4093 32.8243 11.0487 32.8243 12.206V16H31.3963Z" fill="#33311F"/>
</svg>
