<svg width="62" height="31" viewBox="0 0 62 31" fill="none" xmlns="http://www.w3.org/2000/svg">
<g filter="url(#filter0_d_66_564)">
<rect x="4" width="54" height="23" rx="11.5" fill="#E58989" shape-rendering="crispEdges"/>
<path d="M17.148 16V6.13H21.236C22.3 6.13 23.1213 6.396 23.7 6.928C24.2787 7.45067 24.568 8.188 24.568 9.14C24.568 10.1013 24.2787 10.848 23.7 11.38C23.1213 11.9027 22.3 12.164 21.236 12.164H18.604V16H17.148ZM18.604 11.002H21.026C22.4447 11.002 23.154 10.3813 23.154 9.14C23.154 7.908 22.4447 7.292 21.026 7.292H18.604V11.002ZM28.6026 16.126C27.912 16.126 27.3146 15.9813 26.8106 15.692C26.3066 15.4027 25.9146 14.9967 25.6346 14.474C25.364 13.942 25.2286 13.312 25.2286 12.584C25.2286 11.856 25.364 11.2307 25.6346 10.708C25.9146 10.176 26.3066 9.76533 26.8106 9.476C27.3146 9.18667 27.912 9.042 28.6026 9.042C29.2746 9.042 29.8626 9.18667 30.3666 9.476C30.8706 9.76533 31.2626 10.176 31.5426 10.708C31.8226 11.2307 31.9626 11.856 31.9626 12.584C31.9626 13.312 31.8226 13.942 31.5426 14.474C31.2626 14.9967 30.8706 15.4027 30.3666 15.692C29.8626 15.9813 29.2746 16.126 28.6026 16.126ZM28.6026 15.034C29.1813 15.034 29.648 14.824 30.0026 14.404C30.3573 13.984 30.5346 13.3773 30.5346 12.584C30.5346 11.7907 30.3573 11.1887 30.0026 10.778C29.648 10.358 29.1813 10.148 28.6026 10.148C28.0146 10.148 27.5433 10.358 27.1886 10.778C26.834 11.1887 26.6566 11.7907 26.6566 12.584C26.6566 13.3773 26.834 13.984 27.1886 14.404C27.5433 14.824 28.0146 15.034 28.6026 15.034ZM36.5186 16.126C35.828 16.126 35.2306 15.9813 34.7266 15.692C34.2226 15.4027 33.8306 14.9967 33.5506 14.474C33.28 13.942 33.1446 13.312 33.1446 12.584C33.1446 11.856 33.28 11.2307 33.5506 10.708C33.8306 10.176 34.2226 9.76533 34.7266 9.476C35.2306 9.18667 35.828 9.042 36.5186 9.042C37.1906 9.042 37.7786 9.18667 38.2826 9.476C38.7866 9.76533 39.1786 10.176 39.4586 10.708C39.7386 11.2307 39.8786 11.856 39.8786 12.584C39.8786 13.312 39.7386 13.942 39.4586 14.474C39.1786 14.9967 38.7866 15.4027 38.2826 15.692C37.7786 15.9813 37.1906 16.126 36.5186 16.126ZM36.5186 15.034C37.0973 15.034 37.564 14.824 37.9186 14.404C38.2733 13.984 38.4506 13.3773 38.4506 12.584C38.4506 11.7907 38.2733 11.1887 37.9186 10.778C37.564 10.358 37.0973 10.148 36.5186 10.148C35.9306 10.148 35.4593 10.358 35.1046 10.778C34.75 11.1887 34.5726 11.7907 34.5726 12.584C34.5726 13.3773 34.75 13.984 35.1046 14.404C35.4593 14.824 35.9306 15.034 36.5186 15.034ZM41.4667 16V9.168H42.8387V10.386C43.1933 9.574 43.9307 9.12133 45.0507 9.028L45.5127 9L45.6107 10.204L44.7567 10.288C43.5153 10.4093 42.8947 11.0487 42.8947 12.206V16H41.4667Z" fill="#331F1F"/>
</g>
<defs>
<filter id="filter0_d_66_564" x="0" y="0" width="62" height="31" filterUnits="userSpaceOnUse" color-interpolation-filters="sRGB">
<feFlood flood-opacity="0" result="BackgroundImageFix"/>
<feColorMatrix in="SourceAlpha" type="matrix" values="0 0 0 0 0 0 0 0 0 0 0 0 0 0 0 0 0 0 127 0" result="hardAlpha"/>
<feOffset dy="4"/>
<feGaussianBlur stdDeviation="2"/>
<feComposite in2="hardAlpha" operator="out"/>
<feColorMatrix type="matrix" values="0 0 0 0 0 0 0 0 0 0 0 0 0 0 0 0 0 0 0.25 0"/>
<feBlend mode="normal" in2="BackgroundImageFix" result="effect1_dropShadow_66_564"/>
<feBlend mode="normal" in="SourceGraphic" in2="effect1_dropShadow_66_564" result="shape"/>
</filter>
</defs>
</svg>
