<svg width="87" height="23" viewBox="0 0 87 23" fill="none" xmlns="http://www.w3.org/2000/svg">
<rect width="87" height="23" rx="11.5" fill="#E589B7"/>
<path d="M16.27 16L11.916 6.13H13.47L16.928 14.166L20.386 6.13H21.87L17.516 16H16.27ZM25.1551 16.126C24.0351 16.126 23.1531 15.8133 22.5091 15.188C21.8651 14.5533 21.5431 13.69 21.5431 12.598C21.5431 11.898 21.6831 11.282 21.9631 10.75C22.2524 10.2087 22.6491 9.78867 23.1531 9.49C23.6571 9.19133 24.2357 9.042 24.8891 9.042C25.8317 9.042 26.5737 9.34533 27.1151 9.952C27.6564 10.5493 27.9271 11.3753 27.9271 12.43V12.906H22.9151C23.0177 14.3247 23.7691 15.034 25.1691 15.034C25.5611 15.034 25.9437 14.9733 26.3171 14.852C26.6997 14.7307 27.0591 14.53 27.3951 14.25L27.8151 15.23C27.5071 15.51 27.1104 15.7293 26.6251 15.888C26.1397 16.0467 25.6497 16.126 25.1551 16.126ZM24.9451 10.036C24.3571 10.036 23.8904 10.218 23.5451 10.582C23.1997 10.946 22.9897 11.4313 22.9151 12.038H26.7371C26.7091 11.4033 26.5411 10.9133 26.2331 10.568C25.9251 10.2133 25.4957 10.036 24.9451 10.036ZM29.4686 16V9.168H30.8406V10.386C31.1953 9.574 31.9326 9.12133 33.0526 9.028L33.5146 9L33.6126 10.204L32.7586 10.288C31.5173 10.4093 30.8966 11.0487 30.8966 12.206V16H29.4686ZM35.8151 18.52L37.0331 15.818L34.1771 9.168H35.6891L37.7891 14.362L39.9171 9.168H41.3731L37.2991 18.52H35.8151ZM46.2203 16V6.13H50.3083C51.3723 6.13 52.1936 6.396 52.7723 6.928C53.3509 7.45067 53.6403 8.188 53.6403 9.14C53.6403 10.1013 53.3509 10.848 52.7723 11.38C52.1936 11.9027 51.3723 12.164 50.3083 12.164H47.6763V16H46.2203ZM47.6763 11.002H50.0983C51.5169 11.002 52.2263 10.3813 52.2263 9.14C52.2263 7.908 51.5169 7.292 50.0983 7.292H47.6763V11.002ZM57.6749 16.126C56.9842 16.126 56.3869 15.9813 55.8829 15.692C55.3789 15.4027 54.9869 14.9967 54.7069 14.474C54.4362 13.942 54.3009 13.312 54.3009 12.584C54.3009 11.856 54.4362 11.2307 54.7069 10.708C54.9869 10.176 55.3789 9.76533 55.8829 9.476C56.3869 9.18667 56.9842 9.042 57.6749 9.042C58.3469 9.042 58.9349 9.18667 59.4389 9.476C59.9429 9.76533 60.3349 10.176 60.6149 10.708C60.8949 11.2307 61.0349 11.856 61.0349 12.584C61.0349 13.312 60.8949 13.942 60.6149 14.474C60.3349 14.9967 59.9429 15.4027 59.4389 15.692C58.9349 15.9813 58.3469 16.126 57.6749 16.126ZM57.6749 15.034C58.2536 15.034 58.7202 14.824 59.0749 14.404C59.4296 13.984 59.6069 13.3773 59.6069 12.584C59.6069 11.7907 59.4296 11.1887 59.0749 10.778C58.7202 10.358 58.2536 10.148 57.6749 10.148C57.0869 10.148 56.6156 10.358 56.2609 10.778C55.9062 11.1887 55.7289 11.7907 55.7289 12.584C55.7289 13.3773 55.9062 13.984 56.2609 14.404C56.6156 14.824 57.0869 15.034 57.6749 15.034ZM65.5909 16.126C64.9002 16.126 64.3029 15.9813 63.7989 15.692C63.2949 15.4027 62.9029 14.9967 62.6229 14.474C62.3522 13.942 62.2169 13.312 62.2169 12.584C62.2169 11.856 62.3522 11.2307 62.6229 10.708C62.9029 10.176 63.2949 9.76533 63.7989 9.476C64.3029 9.18667 64.9002 9.042 65.5909 9.042C66.2629 9.042 66.8509 9.18667 67.3549 9.476C67.8589 9.76533 68.2509 10.176 68.5309 10.708C68.8109 11.2307 68.9509 11.856 68.9509 12.584C68.9509 13.312 68.8109 13.942 68.5309 14.474C68.2509 14.9967 67.8589 15.4027 67.3549 15.692C66.8509 15.9813 66.2629 16.126 65.5909 16.126ZM65.5909 15.034C66.1696 15.034 66.6362 14.824 66.9909 14.404C67.3456 13.984 67.5229 13.3773 67.5229 12.584C67.5229 11.7907 67.3456 11.1887 66.9909 10.778C66.6362 10.358 66.1696 10.148 65.5909 10.148C65.0029 10.148 64.5316 10.358 64.1769 10.778C63.8222 11.1887 63.6449 11.7907 63.6449 12.584C63.6449 13.3773 63.8222 13.984 64.1769 14.404C64.5316 14.824 65.0029 15.034 65.5909 15.034ZM70.5389 16V9.168H71.9109V10.386C72.2656 9.574 73.0029 9.12133 74.1229 9.028L74.5849 9L74.6829 10.204L73.8289 10.288C72.5876 10.4093 71.9669 11.0487 71.9669 12.206V16H70.5389Z" fill="#331F29"/>
</svg>
