<svg width="48" height="48" viewBox="0 0 48 48" fill="none" xmlns="http://www.w3.org/2000/svg">
<mask id="mask0_47_516" style="mask-type:alpha" maskUnits="userSpaceOnUse" x="0" y="0" width="48" height="48">
<rect width="48" height="48" fill="#D9D9D9"/>
</mask>
<g mask="url(#mask0_47_516)">
<path d="M23.0504 39.5999C21.9504 39.5999 20.9504 39.3332 20.0504 38.7999C19.1504 38.2666 18.4504 37.5666 17.9504 36.6999C17.6171 36.0666 17.5924 35.4419 17.8764 34.8259C18.1591 34.2086 18.6837 33.8999 19.4504 33.8999C19.8171 33.8999 20.1504 33.9912 20.4504 34.1739C20.7504 34.3579 21.0504 34.6666 21.3504 35.0999C21.5171 35.3332 21.7591 35.5166 22.0764 35.6499C22.3924 35.7832 22.7171 35.8499 23.0504 35.8499C23.6171 35.8499 24.1004 35.6499 24.5004 35.2499C24.9004 34.8499 25.1004 34.3666 25.1004 33.7999C25.1004 33.1999 24.9004 32.7086 24.5004 32.3259C24.1004 31.9419 23.6171 31.7499 23.0504 31.7499H6.25039C5.75039 31.7499 5.31706 31.5666 4.95039 31.1999C4.58372 30.8332 4.40039 30.3832 4.40039 29.8499C4.40039 29.3499 4.58372 28.9166 4.95039 28.5499C5.31706 28.1832 5.75039 27.9999 6.25039 27.9999H23.0504C24.6504 27.9999 26.0171 28.5666 27.1504 29.6999C28.2837 30.8332 28.8504 32.1999 28.8504 33.7999C28.8504 35.3999 28.2837 36.7666 27.1504 37.8999C26.0171 39.0332 24.6504 39.5999 23.0504 39.5999ZM6.25039 19.9999C5.75039 19.9999 5.31706 19.8166 4.95039 19.4499C4.58372 19.0832 4.40039 18.6332 4.40039 18.0999C4.40039 17.5999 4.58372 17.1666 4.95039 16.7999C5.31706 16.4332 5.75039 16.2499 6.25039 16.2499H30.9004C31.7671 16.2499 32.4924 15.9586 33.0764 15.3759C33.6591 14.7919 33.9504 14.0666 33.9504 13.1999C33.9504 12.3332 33.6591 11.6079 33.0764 11.0239C32.4924 10.4412 31.7671 10.1499 30.9004 10.1499C30.3337 10.1499 29.8257 10.2746 29.3764 10.5239C28.9257 10.7746 28.5671 11.1332 28.3004 11.5999C28.0337 12.0666 27.7257 12.4332 27.3764 12.6999C27.0257 12.9666 26.6504 13.0999 26.2504 13.0999C25.5504 13.0999 25.0337 12.8499 24.7004 12.3499C24.3671 11.8499 24.3171 11.3166 24.5504 10.7499C25.0171 9.41657 25.8091 8.3579 26.9264 7.5739C28.0424 6.79124 29.3671 6.3999 30.9004 6.3999C32.8004 6.3999 34.4091 7.05857 35.7264 8.3759C37.0424 9.6919 37.7004 11.2999 37.7004 13.1999C37.7004 15.0999 37.0424 16.7079 35.7264 18.0239C34.4091 19.3412 32.8004 19.9999 30.9004 19.9999H6.25039ZM39.7004 35.0999C39.0337 35.3999 38.4091 35.3919 37.8264 35.0759C37.2424 34.7586 36.9504 34.2332 36.9504 33.4999C36.9504 33.1332 37.0757 32.7832 37.3264 32.4499C37.5757 32.1166 37.9337 31.8332 38.4004 31.5999C38.8671 31.3332 39.2337 30.9666 39.5004 30.4999C39.7671 30.0332 39.9004 29.4999 39.9004 28.8999C39.9004 28.0332 39.6091 27.3079 39.0264 26.7239C38.4424 26.1412 37.7171 25.8499 36.8504 25.8499H6.25039C5.75039 25.8499 5.31706 25.6666 4.95039 25.2999C4.58372 24.9332 4.40039 24.4832 4.40039 23.9499C4.40039 23.4499 4.58372 23.0166 4.95039 22.6499C5.31706 22.2832 5.75039 22.0999 6.25039 22.0999H36.8504C38.7504 22.0999 40.3591 22.7579 41.6764 24.0739C42.9924 25.3912 43.6504 26.9999 43.6504 28.8999C43.6504 30.2999 43.2924 31.5499 42.5764 32.6499C41.8591 33.7499 40.9004 34.5666 39.7004 35.0999Z" fill="#DDDAE6"/>
</g>
</svg>
