<svg width="48" height="48" viewBox="0 0 48 48" fill="none" xmlns="http://www.w3.org/2000/svg">
<mask id="mask0_66_659" style="mask-type:alpha" maskUnits="userSpaceOnUse" x="0" y="0" width="48" height="48">
<rect width="48" height="48" fill="#D9D9D9"/>
</mask>
<g mask="url(#mask0_66_659)">
<path d="M37.4002 17.2C36.5169 18.0833 35.5044 18.7583 34.3627 19.225C33.221 19.6917 32.0669 19.925 30.9002 19.925C29.7335 19.925 28.596 19.7 27.4877 19.25C26.3794 18.8 25.3835 18.1167 24.5002 17.2L20.7502 13.45C20.2335 12.9333 19.6502 12.55 19.0002 12.3C18.3502 12.05 17.6835 11.925 17.0002 11.925C16.3169 11.925 15.6502 12.05 15.0002 12.3C14.3502 12.55 13.7752 12.9333 13.2752 13.45L10.9502 15.775C10.5835 16.1417 10.1419 16.325 9.6252 16.325C9.10853 16.325 8.66686 16.1417 8.3002 15.775C7.91686 15.3917 7.7252 14.9458 7.7252 14.4375C7.7252 13.9292 7.91686 13.4833 8.3002 13.1L10.6002 10.8C11.4835 9.91667 12.4794 9.25 13.5877 8.8C14.696 8.35 15.8335 8.125 17.0002 8.125C18.1669 8.125 19.296 8.35 20.3877 8.8C21.4794 9.25 22.4669 9.91667 23.3502 10.8L27.1002 14.55C27.6502 15.1 28.2544 15.5 28.9127 15.75C29.571 16 30.2419 16.125 30.9252 16.125C31.6085 16.125 32.2794 15.9958 32.9377 15.7375C33.596 15.4792 34.2002 15.075 34.7502 14.525L37.1002 12.175C37.4669 11.8083 37.9085 11.625 38.4252 11.625C38.9419 11.625 39.3835 11.8083 39.7502 12.175C40.1335 12.5583 40.3252 13.0042 40.3252 13.5125C40.3252 14.0208 40.1335 14.4667 39.7502 14.85L37.4002 17.2ZM37.4002 27.2C36.5169 28.0833 35.5127 28.75 34.3877 29.2C33.2627 29.65 32.1169 29.875 30.9502 29.875C29.7835 29.875 28.6377 29.65 27.5127 29.2C26.3877 28.75 25.3835 28.0833 24.5002 27.2L20.7502 23.45C20.2335 22.9333 19.6502 22.55 19.0002 22.3C18.3502 22.05 17.6835 21.925 17.0002 21.925C16.3169 21.925 15.6502 22.05 15.0002 22.3C14.3502 22.55 13.7752 22.9333 13.2752 23.45L10.9252 25.8C10.5585 26.1667 10.1169 26.35 9.6002 26.35C9.08353 26.35 8.63353 26.1667 8.2502 25.8C7.9002 25.4333 7.7252 24.9875 7.7252 24.4625C7.7252 23.9375 7.9002 23.5 8.2502 23.15L10.6002 20.8C11.4835 19.9167 12.4794 19.25 13.5877 18.8C14.696 18.35 15.8335 18.125 17.0002 18.125C18.1669 18.125 19.296 18.35 20.3877 18.8C21.4794 19.25 22.4669 19.9167 23.3502 20.8L27.1002 24.55C27.6502 25.1 28.2544 25.5 28.9127 25.75C29.571 26 30.2419 26.125 30.9252 26.125C31.6085 26.125 32.2794 25.9958 32.9377 25.7375C33.596 25.4792 34.2002 25.075 34.7502 24.525L37.1002 22.175C37.4669 21.8083 37.9085 21.625 38.4252 21.625C38.9419 21.625 39.3835 21.8083 39.7502 22.175C40.1335 22.5583 40.3252 23.0042 40.3252 23.5125C40.3252 24.0208 40.1335 24.4667 39.7502 24.85L37.4002 27.2ZM37.3502 37.2C36.4669 38.0833 35.4669 38.75 34.3502 39.2C33.2335 39.65 32.0919 39.875 30.9252 39.875C29.7585 39.875 28.6169 39.65 27.5002 39.2C26.3835 38.75 25.3835 38.0833 24.5002 37.2L20.7002 33.45C20.1835 32.9333 19.6002 32.55 18.9502 32.3C18.3002 32.05 17.6335 31.925 16.9502 31.925C16.2669 31.925 15.6002 32.05 14.9502 32.3C14.3002 32.55 13.7252 32.9333 13.2252 33.45L10.9002 35.775C10.5169 36.1583 10.0752 36.35 9.5752 36.35C9.0752 36.35 8.63353 36.1583 8.2502 35.775C7.88353 35.4083 7.7002 34.9708 7.7002 34.4625C7.7002 33.9542 7.88353 33.5167 8.2502 33.15L10.6002 30.8C11.4835 29.9167 12.4794 29.25 13.5877 28.8C14.696 28.35 15.8335 28.125 17.0002 28.125C18.1669 28.125 19.296 28.35 20.3877 28.8C21.4794 29.25 22.4669 29.9167 23.3502 30.8L27.1002 34.55C27.6502 35.1 28.2585 35.5 28.9252 35.75C29.5919 36 30.2669 36.125 30.9502 36.125C31.6335 36.125 32.3002 35.9958 32.9502 35.7375C33.6002 35.4792 34.2002 35.075 34.7502 34.525L37.1002 32.175C37.4502 31.825 37.8835 31.65 38.4002 31.65C38.9169 31.65 39.3502 31.8333 39.7002 32.2C40.0835 32.5667 40.2752 33.0042 40.2752 33.5125C40.2752 34.0208 40.0835 34.4667 39.7002 34.85L37.3502 37.2Z" fill="#DDDAE6"/>
</g>
</svg>
