<svg width="48" height="48" viewBox="0 0 48 48" fill="none" xmlns="http://www.w3.org/2000/svg">
<mask id="mask0_66_641" style="mask-type:alpha" maskUnits="userSpaceOnUse" x="0" y="0" width="48" height="48">
<rect width="48" height="48" fill="#D9D9D9"/>
</mask>
<g mask="url(#mask0_66_641)">
<path d="M26.2044 45.8749C23.4348 45.8749 20.8298 45.3447 18.3894 44.2842C15.9489 43.2237 13.8239 41.7903 12.0144 39.9842C10.2048 38.178 8.77083 36.0541 7.7125 33.6124C6.65417 31.1707 6.125 28.5669 6.125 25.8009C6.125 20.9933 7.64167 16.7537 10.675 13.0822C13.7083 9.41067 17.5917 7.0999 22.325 6.1499C21.775 9.4499 21.9917 12.6707 22.975 15.8124C23.9583 18.9541 25.625 21.6999 27.975 24.0499C30.325 26.3999 33.0708 28.0624 36.2125 29.0374C39.3542 30.0124 42.5667 30.2166 45.85 29.6499C44.9333 34.3832 42.6333 38.2707 38.95 41.3124C35.2667 44.3541 31.0181 45.8749 26.2044 45.8749ZM26.2 42.1249C29.1833 42.1249 31.9375 41.3666 34.4625 39.8499C36.9875 38.3332 38.9833 36.2666 40.45 33.6499C37.5594 33.3849 34.8201 32.6645 32.2321 31.4887C29.644 30.3128 27.325 28.6999 25.275 26.6499C23.2417 24.6166 21.6333 22.3082 20.45 19.7249C19.2667 17.1416 18.5583 14.4166 18.325 11.5499C15.7083 12.9999 13.6458 14.9916 12.1375 17.5249C10.6292 20.0582 9.875 22.8166 9.875 25.7999C9.875 30.3346 11.4622 34.1892 14.6365 37.3635C17.8108 40.5378 21.6653 42.1249 26.2 42.1249Z" fill="#DDDAE6"/>
</g>
</svg>
