<svg width="48" height="48" viewBox="0 0 48 48" fill="none" xmlns="http://www.w3.org/2000/svg">
<mask id="mask0_66_635" style="mask-type:alpha" maskUnits="userSpaceOnUse" x="0" y="0" width="48" height="48">
<rect width="48" height="48" fill="#D9D9D9"/>
</mask>
<g mask="url(#mask0_66_635)">
<path d="M24 9.875C23.4833 9.875 23.0417 9.69167 22.675 9.325C22.3083 8.95833 22.125 8.51667 22.125 8V4C22.125 3.48333 22.3083 3.04167 22.675 2.675C23.0417 2.30833 23.4833 2.125 24 2.125C24.5167 2.125 24.9583 2.30833 25.325 2.675C25.6917 3.04167 25.875 3.48333 25.875 4V8C25.875 8.51667 25.6917 8.95833 25.325 9.325C24.9583 9.69167 24.5167 9.875 24 9.875ZM34 14C33.6333 13.65 33.4542 13.2208 33.4625 12.7125C33.4708 12.2042 33.65 11.7667 34 11.4L36.8 8.55C37.1833 8.16667 37.625 7.975 38.125 7.975C38.625 7.975 39.0667 8.16667 39.45 8.55C39.8167 8.9 39.9958 9.33333 39.9875 9.85C39.9792 10.3667 39.8 10.8 39.45 11.15L36.6 14C36.25 14.35 35.8167 14.525 35.3 14.525C34.7833 14.525 34.35 14.35 34 14ZM40 25.875C39.4833 25.875 39.0417 25.6917 38.675 25.325C38.3083 24.9583 38.125 24.5167 38.125 24C38.125 23.4833 38.3083 23.0417 38.675 22.675C39.0417 22.3083 39.4833 22.125 40 22.125H44C44.5167 22.125 44.9583 22.3083 45.325 22.675C45.6917 23.0417 45.875 23.4833 45.875 24C45.875 24.5167 45.6917 24.9583 45.325 25.325C44.9583 25.6917 44.5167 25.875 44 25.875H40ZM24 45.875C23.4833 45.875 23.0417 45.6917 22.675 45.325C22.3083 44.9583 22.125 44.5167 22.125 44V40C22.125 39.4833 22.3083 39.0417 22.675 38.675C23.0417 38.3083 23.4833 38.125 24 38.125C24.5167 38.125 24.9583 38.3083 25.325 38.675C25.6917 39.0417 25.875 39.4833 25.875 40V44C25.875 44.5167 25.6917 44.9583 25.325 45.325C24.9583 45.6917 24.5167 45.875 24 45.875ZM11.4 14L8.55 11.2C8.16667 10.8333 7.975 10.3917 7.975 9.875C7.975 9.35833 8.16667 8.91667 8.55 8.55C8.91667 8.2 9.35417 8.025 9.8625 8.025C10.3708 8.025 10.8 8.2 11.15 8.55L14 11.4C14.35 11.75 14.5292 12.1833 14.5375 12.7C14.5458 13.2167 14.375 13.65 14.025 14C13.6417 14.3667 13.2042 14.55 12.7125 14.55C12.2208 14.55 11.7833 14.3667 11.4 14ZM36.8 39.475L34 36.625C33.65 36.2417 33.475 35.7958 33.475 35.2875C33.475 34.7792 33.65 34.35 34 34C34.35 33.65 34.7792 33.475 35.2875 33.475C35.7958 33.475 36.2333 33.65 36.6 34L39.475 36.8C39.8583 37.15 40.0417 37.5833 40.025 38.1C40.0083 38.6167 39.8167 39.0667 39.45 39.45C39.0833 39.8333 38.6375 40.0292 38.1125 40.0375C37.5875 40.0458 37.15 39.8583 36.8 39.475ZM4 25.875C3.48333 25.875 3.04167 25.6917 2.675 25.325C2.30833 24.9583 2.125 24.5167 2.125 24C2.125 23.4833 2.30833 23.0417 2.675 22.675C3.04167 22.3083 3.48333 22.125 4 22.125H8C8.51667 22.125 8.95833 22.3083 9.325 22.675C9.69167 23.0417 9.875 23.4833 9.875 24C9.875 24.5167 9.69167 24.9583 9.325 25.325C8.95833 25.6917 8.51667 25.875 8 25.875H4ZM8.55 39.475C8.18333 39.1083 8 38.6708 8 38.1625C8 37.6542 8.18333 37.2167 8.55 36.85L11.4 34C11.75 33.65 12.1792 33.475 12.6875 33.475C13.1958 33.475 13.6333 33.65 14 34C14.3833 34.3833 14.575 34.825 14.575 35.325C14.575 35.825 14.3833 36.2667 14 36.65L11.2 39.45C10.8167 39.8333 10.3667 40.025 9.85 40.025C9.33333 40.025 8.9 39.8417 8.55 39.475ZM24 35.875C20.7 35.875 17.8958 34.7208 15.5875 32.4125C13.2792 30.1042 12.125 27.3 12.125 24C12.125 20.7 13.2792 17.8958 15.5875 15.5875C17.8958 13.2792 20.7 12.125 24 12.125C27.3 12.125 30.1042 13.2792 32.4125 15.5875C34.7208 17.8958 35.875 20.7 35.875 24C35.875 27.3 34.7208 30.1042 32.4125 32.4125C30.1042 34.7208 27.3 35.875 24 35.875ZM24 32.125C26.25 32.125 28.1667 31.3333 29.75 29.75C31.3333 28.1667 32.125 26.25 32.125 24C32.125 21.75 31.3333 19.8333 29.75 18.25C28.1667 16.6667 26.25 15.875 24 15.875C21.75 15.875 19.8333 16.6667 18.25 18.25C16.6667 19.8333 15.875 21.75 15.875 24C15.875 26.25 16.6667 28.1667 18.25 29.75C19.8333 31.3333 21.75 32.125 24 32.125Z" fill="#DDDAE6"/>
</g>
</svg>
