<svg width="48" height="48" viewBox="0 0 48 48" fill="none" xmlns="http://www.w3.org/2000/svg">
<mask id="mask0_47_522" style="mask-type:alpha" maskUnits="userSpaceOnUse" x="0" y="0" width="48" height="48">
<rect width="48" height="48" fill="#D9D9D9"/>
</mask>
<g mask="url(#mask0_47_522)">
<path d="M29 35.8499C29.8 35.8499 30.4833 35.5753 31.05 35.026C31.6167 34.4753 31.9 33.7999 31.9 33C31.9 32.2 31.6167 31.5166 31.05 30.95C30.4833 30.3833 29.8 30.1 29 30.1C28.2 30.1 27.5253 30.3833 26.976 30.95C26.4253 31.5166 26.15 32.2 26.15 33C26.15 33.7999 26.4253 34.4753 26.976 35.026C27.5253 35.5753 28.2 35.8499 29 35.8499ZM17.6 34.4C17.9667 34.7666 18.4 34.95 18.9 34.95C19.4 34.95 19.85 34.7666 20.25 34.4L30.4 24.2C30.8 23.8333 31 23.4 31 22.9C31 22.4 30.8 21.9499 30.4 21.5499C30.0333 21.1833 29.6 21 29.1 21C28.6 21 28.15 21.1833 27.75 21.5499L17.6 31.75C17.2 32.1166 17 32.5499 17 33.0499C17 33.5499 17.2 34 17.6 34.4ZM19 25.85C19.8 25.85 20.4833 25.5746 21.05 25.024C21.6167 24.4746 21.9 23.7999 21.9 23C21.9 22.2 21.6167 21.5166 21.05 20.95C20.4833 20.3833 19.8 20.1 19 20.1C18.2 20.1 17.5253 20.3833 16.976 20.95C16.4253 21.5166 16.15 22.2 16.15 23C16.15 23.7999 16.4253 24.4746 16.976 25.024C17.5253 25.5746 18.2 25.85 19 25.85ZM24 43.75C19.8667 43.75 16.2087 42.3 13.026 39.4C9.842 36.5 8.25 32.5666 8.25 27.6C8.25 24.5 9.45 21.092 11.85 17.376C14.25 13.6586 17.8333 9.68328 22.6 5.44995C22.7667 5.31662 22.9753 5.19995 23.226 5.09995C23.4753 4.99995 23.7333 4.94995 24 4.94995C24.2667 4.94995 24.5253 4.99995 24.776 5.09995C25.0253 5.19995 25.2333 5.31662 25.4 5.44995C30.1667 9.68328 33.75 13.6586 36.15 17.376C38.55 21.092 39.75 24.5 39.75 27.6C39.75 32.5666 38.1667 36.5 35 39.4C31.8333 42.3 28.1667 43.75 24 43.75ZM24 40C27.3667 40 30.208 38.8499 32.524 36.5499C34.8413 34.25 36 31.2666 36 27.6C36 25.2333 35.0167 22.5246 33.05 19.474C31.0833 16.4246 28.0667 13.0333 24 9.29995C19.9333 13.0333 16.9167 16.4246 14.95 19.474C12.9833 22.5246 12 25.2333 12 27.6C12 31.2666 13.158 34.25 15.474 36.5499C17.7913 38.8499 20.6333 40 24 40Z" fill="#DDDAE6"/>
</g>
</svg>
