<?xml version="1.0" encoding="UTF-8"?>
<svg xmlns="http://www.w3.org/2000/svg" xmlns:xlink="http://www.w3.org/1999/xlink" width="16px" height="20px" viewBox="0 0 16 19" version="1.1">
<g id="surface1">
<path style=" stroke:none;fill-rule:nonzero;fill:rgb(86.666667%,85.490197%,90.196079%);fill-opacity:1;" d="M 8 9.988281 C 8.507812 9.988281 8.945312 9.8125 9.308594 9.464844 C 9.675781 9.117188 9.855469 8.691406 9.855469 8.195312 C 9.855469 7.699219 9.675781 7.273438 9.308594 6.914062 C 8.945312 6.558594 8.507812 6.378906 8 6.378906 C 7.492188 6.378906 7.058594 6.558594 6.703125 6.914062 C 6.34375 7.273438 6.167969 7.699219 6.167969 8.195312 C 6.167969 8.691406 6.34375 9.117188 6.703125 9.464844 C 7.058594 9.8125 7.492188 9.988281 8 9.988281 Z M 8 16.972656 C 9.953125 15.21875 11.40625 13.628906 12.355469 12.199219 C 13.308594 10.773438 13.785156 9.5 13.785156 8.382812 C 13.785156 6.660156 13.226562 5.253906 12.105469 4.167969 C 10.988281 3.082031 9.617188 2.539062 8 2.539062 C 6.378906 2.539062 5.015625 3.082031 3.90625 4.167969 C 2.792969 5.253906 2.238281 6.660156 2.238281 8.382812 C 2.238281 9.5 2.710938 10.773438 3.65625 12.199219 C 4.597656 13.628906 6.046875 15.21875 8 16.972656 Z M 8 18.953125 C 7.890625 18.953125 7.773438 18.933594 7.65625 18.894531 C 7.535156 18.855469 7.429688 18.796875 7.332031 18.71875 C 5.015625 16.71875 3.289062 14.863281 2.15625 13.15625 C 1.019531 11.449219 0.453125 9.855469 0.453125 8.382812 C 0.453125 6.070312 1.210938 4.226562 2.726562 2.851562 C 4.242188 1.476562 6 0.792969 8 0.792969 C 10 0.792969 11.761719 1.476562 13.285156 2.851562 C 14.808594 4.226562 15.570312 6.070312 15.570312 8.382812 C 15.570312 9.855469 15 11.449219 13.855469 13.15625 C 12.714844 14.863281 10.984375 16.71875 8.667969 18.71875 C 8.585938 18.796875 8.488281 18.855469 8.371094 18.894531 C 8.25 18.933594 8.125 18.953125 8 18.953125 Z M 8 18.953125 "/>
</g>
</svg>
