<svg width="14" height="17" viewBox="0 0 14 17" fill="none" xmlns="http://www.w3.org/2000/svg">
<path d="M6.99992 8.93754C7.44436 8.93754 7.82631 8.78115 8.14575 8.46837C8.4652 8.15615 8.62492 7.77782 8.62492 7.33337C8.62492 6.88893 8.4652 6.50698 8.14575 6.18754C7.82631 5.8681 7.44436 5.70837 6.99992 5.70837C6.55547 5.70837 6.17714 5.8681 5.86492 6.18754C5.55214 6.50698 5.39575 6.88893 5.39575 7.33337C5.39575 7.77782 5.55214 8.15615 5.86492 8.46837C6.17714 8.78115 6.55547 8.93754 6.99992 8.93754ZM6.99992 15.1875C8.70825 13.6181 9.97909 12.1945 10.8124 10.9167C11.6458 9.63893 12.0624 8.50004 12.0624 7.50004C12.0624 5.95837 11.5727 4.70143 10.5933 3.72921C9.61436 2.75699 8.41658 2.27087 6.99992 2.27087C5.58325 2.27087 4.38881 2.75699 3.41659 3.72921C2.44436 4.70143 1.95825 5.95837 1.95825 7.50004C1.95825 8.50004 2.37159 9.63893 3.19825 10.9167C4.02436 12.1945 5.29159 13.6181 6.99992 15.1875ZM6.99992 16.9584C6.9027 16.9584 6.80214 16.9412 6.69825 16.9067C6.59381 16.8717 6.49992 16.8195 6.41659 16.75C4.38881 14.9584 2.87853 13.2987 1.88575 11.7709C0.892419 10.2431 0.395752 8.81948 0.395752 7.50004C0.395752 5.4306 1.05909 3.78115 2.38575 2.55171C3.71186 1.32282 5.24992 0.708374 6.99992 0.708374C8.74992 0.708374 10.2916 1.32282 11.6249 2.55171C12.9583 3.78115 13.6249 5.4306 13.6249 7.50004C13.6249 8.81948 13.1249 10.2431 12.1249 11.7709C11.1249 13.2987 9.61103 14.9584 7.58325 16.75C7.51381 16.8195 7.42714 16.8717 7.32325 16.9067C7.21881 16.9412 7.11103 16.9584 6.99992 16.9584Z" fill="#DDDAE6"/>
</svg>
