<svg width="18" height="18" viewBox="0 0 18 18" fill="none" xmlns="http://www.w3.org/2000/svg">
<path d="M15.8249 17.125L10.2749 11.575C9.79152 11.975 9.22919 12.2873 8.58785 12.512C7.94585 12.7373 7.26652 12.85 6.54985 12.85C4.78319 12.85 3.28719 12.2373 2.06185 11.012C0.837187 9.78728 0.224854 8.29162 0.224854 6.52495C0.224854 4.75828 0.833187 3.26228 2.04985 2.03695C3.26652 0.812285 4.75819 0.199951 6.52485 0.199951C8.30819 0.199951 9.81252 0.812285 11.0379 2.03695C12.2625 3.26228 12.8749 4.75828 12.8749 6.52495C12.8749 7.24162 12.7625 7.92062 12.5379 8.56195C12.3125 9.20395 11.9999 9.77495 11.5999 10.275L17.1749 15.825C17.3415 15.9916 17.4249 16.2 17.4249 16.45C17.4249 16.7 17.3332 16.9249 17.1499 17.125C16.9665 17.3083 16.7459 17.4 16.4879 17.4C16.2292 17.4 16.0082 17.3083 15.8249 17.125ZM6.54985 10.975C7.78319 10.975 8.83319 10.5416 9.69985 9.67495C10.5665 8.80828 10.9999 7.75828 10.9999 6.52495C10.9999 5.27495 10.5665 4.22062 9.69985 3.36195C8.83319 2.50395 7.78319 2.07495 6.54985 2.07495C5.29985 2.07495 4.24585 2.50395 3.38785 3.36195C2.52919 4.22062 2.09985 5.27495 2.09985 6.52495C2.09985 7.75828 2.52919 8.80828 3.38785 9.67495C4.24585 10.5416 5.29985 10.975 6.54985 10.975Z" fill="#DDDAE6"/>
</svg>
