<svg width="48" height="48" viewBox="0 0 48 48" fill="none" xmlns="http://www.w3.org/2000/svg">
<mask id="mask0_66_671" style="mask-type:alpha" maskUnits="userSpaceOnUse" x="0" y="0" width="48" height="48">
<rect width="48" height="48" fill="#D9D9D9"/>
</mask>
<g mask="url(#mask0_66_671)">
<path d="M25.85 21.55V17.8H35.5V21.55H25.85ZM25.85 14.05V10.3H41.15V14.05H25.85ZM16.3 41.4001C13.6667 41.4001 11.4167 40.4747 9.55 38.6241C7.68333 36.7747 6.75 34.5167 6.75 31.85C6.75 30.3167 7.1 28.8747 7.8 27.524C8.5 26.1747 9.46667 25.0334 10.7 24.1V12.15C10.7 10.6167 11.242 9.30005 12.326 8.20005C13.4087 7.10005 14.7333 6.55005 16.3 6.55005C17.9 6.55005 19.242 7.10005 20.326 8.20005C21.4087 9.30005 21.95 10.6167 21.95 12.15V24.1C23.2167 25.0334 24.192 26.1747 24.876 27.524C25.5587 28.8747 25.9 30.3167 25.9 31.85C25.9 34.5167 24.9667 36.7747 23.1 38.6241C21.2333 40.4747 18.9667 41.4001 16.3 41.4001ZM10.5 31.85H22.15C22.15 30.9167 21.9333 30.0334 21.5 29.2001C21.0667 28.3667 20.45 27.65 19.65 27.05L18.2 25.9501V12.15C18.2 11.65 18.0167 11.2167 17.65 10.85C17.2833 10.4834 16.8333 10.3 16.3 10.3C15.8 10.3 15.3667 10.4834 15 10.85C14.6333 11.2167 14.45 11.65 14.45 12.15V25.9501L13 27.05C12.2 27.65 11.5833 28.3667 11.15 29.2001C10.7167 30.0334 10.5 30.9167 10.5 31.85Z" fill="#DDDAE6"/>
</g>
</svg>
