<svg width="20" height="20" viewBox="0 0 20 20" fill="none" xmlns="http://www.w3.org/2000/svg">
<mask id="mask0_46_423" style="mask-type:alpha" maskUnits="userSpaceOnUse" x="0" y="0" width="20" height="20">
<rect width="20" height="20" fill="#D9D9D9"/>
</mask>
<g mask="url(#mask0_46_423)">
<path d="M4.25 18.1249C3.81944 18.1249 3.45139 17.9721 3.14583 17.6666C2.84028 17.361 2.6875 16.993 2.6875 16.5624V5.06242C2.6875 4.63186 2.84028 4.26381 3.14583 3.95825C3.45139 3.6527 3.81944 3.49992 4.25 3.49992H5.1875V2.58325C5.1875 2.37492 5.26389 2.1977 5.41667 2.05159C5.56944 1.90603 5.75694 1.83325 5.97917 1.83325C6.1875 1.83325 6.36806 1.90964 6.52083 2.06242C6.67361 2.2152 6.75 2.39575 6.75 2.60409V3.49992H13.25V2.58325C13.25 2.37492 13.3264 2.1977 13.4792 2.05159C13.6319 1.90603 13.8194 1.83325 14.0417 1.83325C14.25 1.83325 14.4306 1.90964 14.5833 2.06242C14.7361 2.2152 14.8125 2.39575 14.8125 2.60409V3.49992H15.75C16.1806 3.49992 16.5486 3.6527 16.8542 3.95825C17.1597 4.26381 17.3125 4.63186 17.3125 5.06242V16.5624C17.3125 16.993 17.1597 17.361 16.8542 17.6666C16.5486 17.9721 16.1806 18.1249 15.75 18.1249H4.25ZM4.25 16.5624H15.75V8.37492H4.25V16.5624ZM4.25 6.81242H15.75V5.06242H4.25V6.81242Z" fill="#DDDAE6"/>
</g>
</svg>
