<svg width="48" height="48" viewBox="0 0 48 48" fill="none" xmlns="http://www.w3.org/2000/svg">
<mask id="mask0_66_665" style="mask-type:alpha" maskUnits="userSpaceOnUse" x="0" y="0" width="48" height="48">
<rect width="48" height="48" fill="#D9D9D9"/>
</mask>
<g mask="url(#mask0_66_665)">
<path d="M23.9998 31.6999C26.4165 31.6999 28.4706 30.8541 30.1623 29.1624C31.854 27.4707 32.6998 25.4166 32.6998 22.9999C32.6998 20.5832 31.854 18.5291 30.1623 16.8374C28.4706 15.1457 26.4165 14.2999 23.9998 14.2999C21.5831 14.2999 19.529 15.1457 17.8373 16.8374C16.1456 18.5291 15.2998 20.5832 15.2998 22.9999C15.2998 25.4166 16.1456 27.4707 17.8373 29.1624C19.529 30.8541 21.5831 31.6999 23.9998 31.6999ZM24.0057 28.2999C22.5351 28.2999 21.2831 27.7852 20.2498 26.7558C19.2165 25.7264 18.6998 24.4764 18.6998 23.0058C18.6998 21.5352 19.2145 20.2832 20.2439 19.2499C21.2733 18.2166 22.5233 17.6999 23.9939 17.6999C25.4645 17.6999 26.7165 18.2146 27.7498 19.244C28.7831 20.2734 29.2998 21.5234 29.2998 22.994C29.2998 24.4646 28.7851 25.7166 27.7557 26.7499C26.7263 27.7832 25.4763 28.2999 24.0057 28.2999ZM24.0059 37.5999C19.5185 37.5999 15.4165 36.4166 11.6998 34.0499C7.98314 31.6832 5.15814 28.4999 3.2248 24.4999C3.1248 24.2999 3.0498 24.0689 2.9998 23.8068C2.9498 23.5447 2.9248 23.2738 2.9248 22.9943C2.9248 22.7147 2.9498 22.4457 2.9998 22.1874C3.0498 21.9291 3.1248 21.6999 3.2248 21.4999C5.15814 17.4999 7.98111 14.3166 11.6937 11.9499C15.4063 9.58324 19.5063 8.3999 23.9937 8.3999C28.4811 8.3999 32.5831 9.58324 36.2998 11.9499C40.0165 14.3166 42.8415 17.4999 44.7748 21.4999C44.8748 21.6999 44.9498 21.931 44.9998 22.1931C45.0498 22.4552 45.0748 22.726 45.0748 23.0056C45.0748 23.2851 45.0498 23.5541 44.9998 23.8124C44.9498 24.0707 44.8748 24.2999 44.7748 24.4999C42.8415 28.4999 40.0185 31.6832 36.3059 34.0499C32.5933 36.4166 28.4933 37.5999 24.0059 37.5999ZM23.9998 33.8499C27.6998 33.8499 31.1081 32.8749 34.2248 30.9249C37.3415 28.9749 39.7165 26.3332 41.3498 22.9999C39.7165 19.6666 37.3415 17.0249 34.2248 15.0749C31.1081 13.1249 27.6998 12.1499 23.9998 12.1499C20.2998 12.1499 16.8915 13.1249 13.7748 15.0749C10.6581 17.0249 8.28314 19.6666 6.6498 22.9999C8.28314 26.3332 10.6581 28.9749 13.7748 30.9249C16.8915 32.8749 20.2998 33.8499 23.9998 33.8499Z" fill="#DDDAE6"/>
</g>
</svg>
